<svg width="214" height="171" viewBox="0 0 214 171" fill="none" xmlns="http://www.w3.org/2000/svg">
<g clip-path="url(#clip0_121_36)">
<path d="M138.699 13.6231L95.8988 163.251C94.2603 168.929 88.3419 172.202 82.6575 170.599C76.9731 168.963 73.6963 163.051 75.3013 157.373L118.101 7.75162C119.74 2.07589 125.658 -1.21051 131.343 0.411314C137.027 2.03281 140.304 7.94867 138.699 13.6231ZM173.407 40.5455L210.857 77.9518C215.037 82.1266 215.037 88.8731 210.857 93.0479L173.407 130.454C169.227 134.629 162.473 134.629 158.293 130.454C154.113 126.279 154.113 119.533 158.293 115.358L188.153 85.4998L158.293 55.6416C154.113 51.4668 154.113 44.7204 158.293 40.5455C162.473 36.3707 169.227 36.3707 173.407 40.5455ZM55.7069 55.6416L25.8305 85.4998L55.7069 115.358C59.8866 119.533 59.8866 126.279 55.7069 130.454C51.5272 134.629 44.7728 134.629 40.5931 130.454L3.13376 93.0479C-1.04459 88.8731 -1.04459 82.1266 3.13376 77.9518L40.5931 40.5455C44.7728 36.3707 51.5272 36.3707 55.7069 40.5455C59.8866 44.7204 59.8866 51.4668 55.7069 55.6416Z" fill="#4843D5"/>
</g>
<defs>
<clipPath id="clip0_121_36">
<rect width="214" height="171" fill="white"/>
</clipPath>
</defs>
</svg>
