<svg width="45" height="46" viewBox="0 0 45 46" fill="none" xmlns="http://www.w3.org/2000/svg">
<path d="M15.0514 35.7039C15.0514 35.8836 14.8427 36.0273 14.5796 36.0273C14.2802 36.0543 14.0716 35.9105 14.0716 35.7039C14.0716 35.5242 14.2802 35.3805 14.5433 35.3805C14.8155 35.3535 15.0514 35.4973 15.0514 35.7039ZM12.2298 35.2996C12.1663 35.4793 12.3478 35.6859 12.62 35.7398C12.8558 35.8297 13.128 35.7398 13.1825 35.5602C13.2369 35.3805 13.0645 35.1738 12.7923 35.093C12.5565 35.0301 12.2933 35.1199 12.2298 35.2996ZM16.2399 35.1469C15.9768 35.2098 15.7954 35.3805 15.8226 35.5871C15.8498 35.7668 16.0857 35.8836 16.3579 35.8207C16.621 35.7578 16.8024 35.5871 16.7752 35.4074C16.748 35.2367 16.503 35.1199 16.2399 35.1469ZM22.2097 0.71875C9.62601 0.71875 0 10.1793 0 22.6406C0 32.6043 6.33266 41.1305 15.378 44.1313C16.5393 44.3379 16.9476 43.6281 16.9476 43.0441C16.9476 42.4871 16.9204 39.4145 16.9204 37.5277C16.9204 37.5277 10.5696 38.8754 9.23589 34.8504C9.23589 34.8504 8.20161 32.2359 6.71371 31.5621C6.71371 31.5621 4.63609 30.1516 6.85887 30.1785C6.85887 30.1785 9.11794 30.3582 10.3609 32.4965C12.3478 35.9645 15.6774 34.9672 16.9748 34.3742C17.1835 32.9367 17.7732 31.9395 18.4264 31.3465C13.3548 30.7895 8.2379 30.0617 8.2379 21.4187C8.2379 18.948 8.92742 17.7082 10.379 16.127C10.1431 15.543 9.37198 13.1352 10.6149 10.0266C12.5111 9.44258 16.875 12.4523 16.875 12.4523C18.6895 11.9492 20.6401 11.6887 22.5726 11.6887C24.505 11.6887 26.4556 11.9492 28.2702 12.4523C28.2702 12.4523 32.6341 9.43359 34.5302 10.0266C35.7732 13.1441 35.002 15.543 34.7661 16.127C36.2177 17.7172 37.1069 18.957 37.1069 21.4187C37.1069 30.0887 31.7631 30.7805 26.6915 31.3465C27.5262 32.0562 28.2339 33.4039 28.2339 35.5152C28.2339 38.543 28.2067 42.2895 28.2067 43.0262C28.2067 43.6102 28.624 44.3199 29.7762 44.1133C38.8488 41.1305 45 32.6043 45 22.6406C45 10.1793 34.7933 0.71875 22.2097 0.71875ZM8.81855 31.7059C8.7006 31.7957 8.72782 32.0023 8.88206 32.173C9.02722 32.3168 9.23589 32.3797 9.35383 32.2629C9.47177 32.173 9.44456 31.9664 9.29032 31.7957C9.14516 31.652 8.93649 31.5891 8.81855 31.7059ZM7.83871 30.9781C7.7752 31.0949 7.86593 31.2387 8.04738 31.3285C8.19254 31.4184 8.37399 31.3914 8.4375 31.2656C8.50101 31.1488 8.41028 31.0051 8.22883 30.9152C8.04738 30.8613 7.90222 30.8883 7.83871 30.9781ZM10.7782 34.1766C10.6331 34.2934 10.6875 34.5629 10.8962 34.7336C11.1048 34.9402 11.3679 34.9672 11.4859 34.8234C11.6038 34.7066 11.5494 34.4371 11.3679 34.2664C11.1683 34.0598 10.8962 34.0328 10.7782 34.1766ZM9.74395 32.8559C9.59879 32.9457 9.59879 33.1793 9.74395 33.3859C9.88911 33.5926 10.1341 33.6824 10.252 33.5926C10.3972 33.4758 10.3972 33.2422 10.252 33.0355C10.125 32.8289 9.88911 32.7391 9.74395 32.8559Z" fill="#4843D5"/>
</svg>
