<svg width="39" height="45" viewBox="0 0 39 45" fill="none" xmlns="http://www.w3.org/2000/svg">
<path d="M8.72973 38.8867H0.644196V12.9247H8.72973V38.8867ZM4.68261 9.38324C2.09712 9.38324 0 7.24795 0 4.66998C1.85058e-08 3.43168 0.493345 2.2441 1.37151 1.36849C2.24967 0.492888 3.44071 0.000976562 4.68261 0.000976562C5.92452 0.000976562 7.11556 0.492888 7.99372 1.36849C8.87188 2.2441 9.36522 3.43168 9.36522 4.66998C9.36522 7.24795 7.26723 9.38324 4.68261 9.38324ZM38.9913 38.8867H30.9232V26.2486C30.9232 23.2366 30.8622 19.374 26.7194 19.374C22.5155 19.374 21.8713 22.6464 21.8713 26.0316V38.8867H13.7945V12.9247H21.5492V16.4662H21.6624C22.7419 14.4264 25.3787 12.2737 29.3127 12.2737C37.4957 12.2737 39 17.6467 39 24.6254V38.8867H38.9913Z" fill="#4843D5"/>
</svg>
