<svg width="139" height="185" viewBox="0 0 139 185" fill="none" xmlns="http://www.w3.org/2000/svg">
<path d="M115.833 0H23.1667C13.5743 0 5.79175 7.76855 5.79175 17.3438V167.656C5.79175 177.231 13.5743 185 23.1667 185H115.833C125.426 185 133.208 177.231 133.208 167.656V17.3438C133.208 7.76855 125.426 0 115.833 0ZM86.8751 161.55C86.8751 165.055 84.2688 167.656 81.0834 167.656H57.591C54.7313 167.656 52.1251 165.055 52.1251 161.875C52.1251 158.695 54.7313 156.094 57.9168 156.094H81.0834C84.2688 156.094 86.8751 158.695 86.8751 161.55ZM110.042 138.75H28.9584V23.125H110.042V138.75Z" fill="#4843D5"/>
</svg>
