<svg width="181" height="181" viewBox="0 0 181 181" fill="none" xmlns="http://www.w3.org/2000/svg">
<path d="M21.8119 59.8855L57.6937 158.163C32.5941 146.002 15.3072 120.266 15.3072 90.5C15.3072 79.5764 17.6404 69.2537 21.8119 59.8855V59.8855ZM141.265 86.7174C141.265 77.4199 137.942 70.9859 135.078 65.966C131.26 59.7795 127.69 54.5121 127.69 48.3256C127.69 41.3967 132.922 34.9627 140.31 34.9627C140.629 34.9627 140.947 34.998 141.3 35.0334C127.902 22.7664 110.085 15.2719 90.5 15.2719C64.2338 15.2719 41.1139 28.7408 27.6449 49.174C29.4125 49.2447 31.074 49.2801 32.4881 49.2801C40.3361 49.2801 52.5324 48.3256 52.5324 48.3256C56.5979 48.0781 57.0574 54.0525 53.0273 54.5121C53.0273 54.5121 48.9619 54.9717 44.4369 55.2191L71.8344 136.669L88.3082 87.3184L76.6068 55.2191C72.5414 54.9717 68.7234 54.5121 68.7234 54.5121C64.658 54.2646 65.1529 48.0781 69.183 48.3256C69.183 48.3256 81.5914 49.2801 88.9799 49.2801C96.8279 49.2801 109.024 48.3256 109.024 48.3256C113.09 48.0781 113.549 54.0525 109.519 54.5121C109.519 54.5121 105.454 54.9717 100.929 55.2191L128.114 136.068L135.609 111.004C138.79 100.611 141.265 93.1514 141.265 86.7174ZM91.808 97.0754L69.2537 162.653C76.0059 164.632 83.1115 165.728 90.5 165.728C99.2672 165.728 107.646 164.208 115.458 161.451C115.246 161.132 115.069 160.779 114.928 160.425L91.808 97.0754ZM156.501 54.4061C156.82 56.81 156.996 59.3553 156.996 62.148C156.996 69.784 155.582 78.3391 151.269 89.0859L128.291 155.512C150.668 142.467 165.693 118.251 165.693 90.5C165.693 77.4199 162.37 65.1176 156.501 54.4061V54.4061ZM178.172 90.5C178.172 138.861 138.826 178.172 90.5 178.172C42.1391 178.172 2.82812 138.826 2.82812 90.5C2.82812 42.1391 42.1391 2.82812 90.5 2.82812C138.826 2.82812 178.172 42.1391 178.172 90.5ZM174.142 90.5C174.142 44.3662 136.598 6.8582 90.5 6.8582C44.3662 6.8582 6.8582 44.3662 6.8582 90.5C6.8582 136.634 44.4016 174.142 90.5 174.142C136.634 174.142 174.142 136.634 174.142 90.5Z" fill="#4843D5"/>
</svg>
